M48
;DRILL file {KiCad 4.0.3-stable} date Saturday, August 27, 2016 'PMt' 02:17:05 PM
;FORMAT={-:-/ absolute / metric / decimal}
FMAT,2
METRIC,TZ
T1C0.400
T2C0.900
T3C1.001
%
G90
G05
M71
T1
X167.75Y-88.
X168.5Y-79.5
X168.5Y-81.75
X168.5Y-83.75
X168.5Y-86.
X179.Y-100.5
X182.Y-99.
X184.5Y-92.25
X186.75Y-93.
X189.75Y-93.
X192.5Y-93.
X196.Y-93.
T2
X156.Y-107.
X158.5Y-107.
X161.Y-107.
X163.5Y-107.
X209.75Y-72.75
X209.75Y-81.5
X209.75Y-89.5
X209.75Y-97.5
X209.75Y-105.5
X212.25Y-72.75
X212.25Y-81.5
X212.25Y-89.5
X212.25Y-97.5
X212.25Y-105.5
X214.75Y-72.75
X214.75Y-81.5
X214.75Y-89.5
X214.75Y-97.5
X214.75Y-105.5
X217.25Y-72.75
X217.25Y-81.5
X217.25Y-89.5
X217.25Y-97.5
X217.25Y-105.5
T3
X195.25Y-103.71
X195.25Y-108.79
T0
M30
