M48
;DRILL file {KiCad 4.0.3-stable} date Thursday, September 01, 2016 'PMt' 12:40:08 PM
;FORMAT={-:-/ absolute / metric / decimal}
FMAT,2
METRIC,TZ
T1C0.900
T2C1.000
T3C1.001
%
G90
G05
M71
T1
X156.Y-107.
X158.5Y-107.
X161.Y-107.
X163.5Y-107.
X209.75Y-72.75
X209.75Y-81.5
X209.75Y-89.5
X209.75Y-97.5
X209.75Y-105.5
X212.25Y-72.75
X212.25Y-81.5
X212.25Y-89.5
X212.25Y-97.5
X212.25Y-105.5
X214.75Y-72.75
X214.75Y-81.5
X214.75Y-89.5
X214.75Y-97.5
X214.75Y-105.5
X217.25Y-72.75
X217.25Y-81.5
X217.25Y-89.5
X217.25Y-97.5
X217.25Y-105.5
T2
X168.2Y-88.4
X168.4Y-82.8
X168.504Y-85.296
X169.6Y-80.5
X172.2Y-79.2
X179.Y-100.5
X182.Y-99.
X184.7Y-90.6
X186.7Y-92.7
X189.7Y-92.7
X192.8Y-92.7
X196.Y-92.7
T3
X195.25Y-103.71
X195.25Y-108.79
T0
M30
