G04 #@! TF.FileFunction,Copper,L2,Bot,Signal*
%FSLAX46Y46*%
G04 Gerber Fmt 4.6, Leading zero omitted, Abs format (unit mm)*
G04 Created by KiCad (PCBNEW 4.0.3-stable) date Monday, September 12, 2016 'PMt' 07:44:33 PM*
%MOMM*%
%LPD*%
G01*
G04 APERTURE LIST*
%ADD10C,0.100000*%
%ADD11R,2.000000X2.000000*%
%ADD12C,2.000000*%
%ADD13R,1.998980X1.998980*%
%ADD14C,0.254000*%
G04 APERTURE END LIST*
D10*
D11*
X217250000Y-105500000D03*
D12*
X214750000Y-105500000D03*
X212250000Y-105500000D03*
X209750000Y-105500000D03*
D11*
X217250000Y-97500000D03*
D12*
X214750000Y-97500000D03*
X212250000Y-97500000D03*
X209750000Y-97500000D03*
D11*
X163500000Y-107000000D03*
D12*
X161000000Y-107000000D03*
X158500000Y-107000000D03*
X156000000Y-107000000D03*
D11*
X217250000Y-72750000D03*
D12*
X214750000Y-72750000D03*
X212250000Y-72750000D03*
X209750000Y-72750000D03*
D11*
X217250000Y-81500000D03*
D12*
X214750000Y-81500000D03*
X212250000Y-81500000D03*
X209750000Y-81500000D03*
D11*
X217250000Y-89500000D03*
D12*
X214750000Y-89500000D03*
X212250000Y-89500000D03*
X209750000Y-89500000D03*
D13*
X195250000Y-108790000D03*
X195250000Y-103710000D03*
D12*
X172200000Y-79200000D03*
X196000000Y-92699994D03*
X189700000Y-92700006D03*
X168400000Y-82800000D03*
X168503525Y-85296481D03*
X184700000Y-90600000D03*
X168200000Y-88400000D03*
X186700000Y-92700000D03*
X169600000Y-80500000D03*
X192800000Y-92700000D03*
X179000000Y-100500000D03*
X182000000Y-99000000D03*
D14*
X173614213Y-79200000D02*
X172200000Y-79200000D01*
X196000000Y-92699994D02*
X182500006Y-79200000D01*
X182500006Y-79200000D02*
X173614213Y-79200000D01*
X188700001Y-91700007D02*
X189700000Y-92700006D01*
X179799994Y-82800000D02*
X188700001Y-91700007D01*
X168400000Y-82800000D02*
X179799994Y-82800000D01*
X169503524Y-86296480D02*
X168503525Y-85296481D01*
X184700000Y-90600000D02*
X173807044Y-90600000D01*
X173807044Y-90600000D02*
X169503524Y-86296480D01*
X169199999Y-89399999D02*
X168200000Y-88400000D01*
X186700000Y-92700000D02*
X172500000Y-92700000D01*
X172500000Y-92700000D02*
X169199999Y-89399999D01*
X171114213Y-80600000D02*
X171014213Y-80500000D01*
X171014213Y-80500000D02*
X169600000Y-80500000D01*
X180700000Y-80600000D02*
X171114213Y-80600000D01*
X192800000Y-92700000D02*
X180700000Y-80600000D01*
X182000000Y-99000000D02*
X180500000Y-99000000D01*
X180500000Y-99000000D02*
X179000000Y-100500000D01*
M02*
